<svg  viewBox="0 0 36 36" fill="none" xmlns="http://www.w3.org/2000/svg">
<g clip-path="url(#clip0_1655_3201)">
<path d="M18.0001 21.32C18.3449 21.32 18.6755 21.183 18.9193 20.9392C19.1631 20.6954 19.3001 20.3647 19.3001 20.02V14C19.3001 13.6552 19.1631 13.3245 18.9193 13.0807C18.6755 12.8369 18.3449 12.7 18.0001 12.7C17.6553 12.7 17.3247 12.8369 17.0809 13.0807C16.8371 13.3245 16.7001 13.6552 16.7001 14V20C16.6975 20.1723 16.7291 20.3435 16.7933 20.5036C16.8574 20.6636 16.9527 20.8093 17.0737 20.9321C17.1947 21.055 17.3389 21.1525 17.498 21.2191C17.657 21.2857 17.8277 21.32 18.0001 21.32Z" fill="black"/>
<path d="M17.95 25.77C18.7784 25.77 19.45 25.0984 19.45 24.27C19.45 23.4416 18.7784 22.77 17.95 22.77C17.1215 22.77 16.45 23.4416 16.45 24.27C16.45 25.0984 17.1215 25.77 17.95 25.77Z" fill="black"/>
<path d="M30.3299 25.54L20.5899 7.60003C20.3321 7.12625 19.9512 6.73075 19.4875 6.45518C19.0238 6.17962 18.4944 6.03418 17.9549 6.03418C17.4155 6.03418 16.8861 6.17962 16.4224 6.45518C15.9587 6.73075 15.5778 7.12625 15.3199 7.60003L5.56995 25.54C5.31475 25.9981 5.18407 26.515 5.19093 27.0393C5.19779 27.5637 5.34195 28.077 5.60905 28.5282C5.87614 28.9795 6.25684 29.3528 6.71319 29.611C7.16954 29.8693 7.6856 30.0034 8.20994 30H27.6899C28.21 30.0005 28.7212 29.8658 29.1735 29.6091C29.6258 29.3524 30.0036 28.9825 30.2698 28.5358C30.536 28.0891 30.6815 27.5808 30.6921 27.0609C30.7026 26.5409 30.5778 26.0272 30.3299 25.57V25.54ZM28.5499 27.48C28.4614 27.6293 28.3356 27.753 28.1848 27.8389C28.034 27.9248 27.8635 27.97 27.6899 27.97H8.20994C8.03612 27.9705 7.86518 27.9257 7.71397 27.8399C7.56276 27.7542 7.43651 27.6305 7.34768 27.4811C7.25884 27.3317 7.21048 27.1617 7.20737 26.9879C7.20426 26.8141 7.24651 26.6425 7.32994 26.49L17.0699 8.55003C17.1556 8.39128 17.2827 8.25867 17.4376 8.16624C17.5925 8.07381 17.7695 8.02501 17.9499 8.02501C18.1303 8.02501 18.3074 8.07381 18.4623 8.16624C18.6172 8.25867 18.7443 8.39128 18.8299 8.55003L28.5699 26.49C28.6528 26.6426 28.6946 26.8141 28.6911 26.9877C28.6876 27.1613 28.6389 27.331 28.5499 27.48Z" fill="black"/>
</g>
<defs>
<clipPath id="clip0_1655_3201">
<rect width="36" height="36" fill="white"/>
</clipPath>
</defs>
</svg>
