<svg  viewBox="0 0 36 36" fill="none" xmlns="http://www.w3.org/2000/svg">
<g clip-path="url(#clip0_1655_3211)">
<path d="M18 6C15.6266 6 13.3066 6.70379 11.3332 8.02236C9.35977 9.34094 7.8217 11.2151 6.91345 13.4078C6.0052 15.6005 5.76756 18.0133 6.23058 20.3411C6.6936 22.6689 7.83649 24.8071 9.51472 26.4853C11.193 28.1635 13.3312 29.3064 15.6589 29.7694C17.9867 30.2324 20.3995 29.9948 22.5922 29.0866C24.7849 28.1783 26.6591 26.6402 27.9776 24.6668C29.2962 22.6935 30 20.3734 30 18C30 14.8174 28.7357 11.7652 26.4853 9.51472C24.2349 7.26428 21.1826 6 18 6ZM18 28C16.0222 28 14.0888 27.4135 12.4443 26.3147C10.7998 25.2159 9.51809 23.6541 8.76121 21.8268C8.00433 19.9996 7.8063 17.9889 8.19215 16.0491C8.578 14.1093 9.53041 12.3275 10.9289 10.9289C12.3275 9.53041 14.1093 8.578 16.0491 8.19215C17.9889 7.8063 19.9996 8.00433 21.8268 8.7612C23.6541 9.51808 25.2159 10.7998 26.3147 12.4443C27.4135 14.0888 28 16.0222 28 18C28 19.3132 27.7413 20.6136 27.2388 21.8268C26.7363 23.0401 25.9997 24.1425 25.0711 25.0711C24.1425 25.9997 23.0401 26.7362 21.8268 27.2388C20.6136 27.7413 19.3132 28 18 28Z" fill="black"/>
<path d="M16.3401 23.74L11.3401 18.74C11.1762 18.5487 11.0906 18.3026 11.1004 18.0509C11.1101 17.7993 11.2144 17.5605 11.3925 17.3824C11.5706 17.2043 11.8093 17.1 12.061 17.0903C12.3127 17.0806 12.5588 17.1662 12.7501 17.33L16.3401 20.92L23.1201 14.14C23.3114 13.9762 23.5574 13.8906 23.8091 13.9003C24.0608 13.91 24.2995 14.0143 24.4776 14.1924C24.6557 14.3705 24.7601 14.6093 24.7698 14.8609C24.7795 15.1126 24.6939 15.3587 24.5301 15.55L16.3401 23.74Z" fill="black"/>
</g>
<defs>
<clipPath id="clip0_1655_3211">
<rect width="36" height="36" fill="white"/>
</clipPath>
</defs>
</svg>
