<svg viewBox="0 0 36 36" fill="none" xmlns="http://www.w3.org/2000/svg">
<g clip-path="url(#clip0_1655_3206)">
<path d="M18 6C15.6266 6 13.3066 6.70379 11.3332 8.02236C9.35977 9.34094 7.8217 11.2151 6.91345 13.4078C6.0052 15.6005 5.76756 18.0133 6.23058 20.3411C6.6936 22.6689 7.83649 24.8071 9.51472 26.4853C11.193 28.1635 13.3312 29.3064 15.6589 29.7694C17.9867 30.2324 20.3995 29.9948 22.5922 29.0866C24.7849 28.1783 26.6591 26.6402 27.9776 24.6668C29.2962 22.6935 30 20.3734 30 18C30 14.8174 28.7357 11.7652 26.4853 9.51472C24.2349 7.26428 21.1826 6 18 6ZM18 28C16.0222 28 14.0888 27.4135 12.4443 26.3147C10.7998 25.2159 9.51809 23.6541 8.76121 21.8268C8.00433 19.9996 7.8063 17.9889 8.19215 16.0491C8.578 14.1093 9.53041 12.3275 10.9289 10.9289C12.3275 9.53041 14.1093 8.578 16.0491 8.19215C17.9889 7.8063 19.9996 8.00433 21.8268 8.7612C23.6541 9.51808 25.2159 10.7998 26.3147 12.4443C27.4135 14.0888 28 16.0222 28 18C28 19.3132 27.7413 20.6136 27.2388 21.8268C26.7363 23.0401 25.9997 24.1425 25.0711 25.0711C24.1425 25.9997 23.0401 26.7362 21.8268 27.2388C20.6136 27.7413 19.3132 28 18 28Z" fill="black"/>
<path d="M18 20.07C17.6552 20.07 17.3245 19.933 17.0807 19.6892C16.8369 19.4454 16.7 19.1148 16.7 18.77V12.77C16.7 12.4252 16.8369 12.0945 17.0807 11.8507C17.3245 11.6069 17.6552 11.47 18 11.47C18.3447 11.47 18.6754 11.6069 18.9192 11.8507C19.163 12.0945 19.2999 12.4252 19.2999 12.77V18.77C19.2999 19.1148 19.163 19.4454 18.9192 19.6892C18.6754 19.933 18.3447 20.07 18 20.07Z" fill="black"/>
<path d="M17.95 24.52C18.7784 24.52 19.45 23.8484 19.45 23.02C19.45 22.1916 18.7784 21.52 17.95 21.52C17.1215 21.52 16.45 22.1916 16.45 23.02C16.45 23.8484 17.1215 24.52 17.95 24.52Z" fill="black"/>
</g>
<defs>
<clipPath id="clip0_1655_3206">
<rect width="36" height="36" fill="white"/>
</clipPath>
</defs>
</svg>
